<svg width="314" height="298" viewBox="0 0 314 298" fill="none" xmlns="http://www.w3.org/2000/svg">
<path fill-rule="evenodd" clip-rule="evenodd" d="M155.18 1.05676C185.753 4.31732 209.396 25.5747 234.781 42.8574C261.066 60.7531 292.753 74.2724 305.44 103.359C318.645 133.631 313.656 168.579 303.295 199.93C292.965 231.187 275.101 260.478 247.525 278.598C220.649 296.258 187.333 298.914 155.18 297.256C124.436 295.671 95.197 286.351 69.5285 269.422C42.8935 251.856 18.3179 229.726 7.43045 199.812C-3.67052 169.311 -0.0216637 135.87 9.64561 104.889C19.4149 73.5809 35.3924 43.5372 62.1506 24.4464C88.8039 5.43049 122.582 -2.41985 155.18 1.05676Z" fill="black"/>
</svg>
