<svg width="306" height="302" viewBox="0 0 306 302" fill="none" xmlns="http://www.w3.org/2000/svg">
<path fill-rule="evenodd" clip-rule="evenodd" d="M151.816 0.751022C185.127 -1.88923 218.188 11.0077 244.72 31.3985C270.813 51.4514 287.555 80.8087 297.069 112.383C306.429 143.445 310.09 177.363 297.739 207.354C285.859 236.202 258.087 253.56 231.96 270.489C207.26 286.493 181.207 301.231 151.816 301.903C121.99 302.584 93.2882 291.57 68.9773 274.212C44.477 256.718 26.3002 232.364 15.1627 204.33C3.40095 174.725 -5.81132 141.857 4.40507 111.679C14.5658 81.6664 43.7253 64.3401 68.9921 45.3266C94.6856 25.9919 119.804 3.28825 151.816 0.751022Z" fill="black"/>
</svg>
