<svg width="303" height="316" viewBox="0 0 303 316" fill="none" xmlns="http://www.w3.org/2000/svg">
<path fill-rule="evenodd" clip-rule="evenodd" d="M146.147 0.0083672C176.847 0.396155 203.901 16.518 229.596 33.3232C256.614 50.9934 286.407 68.6896 297.512 99.0039C308.783 129.772 301.134 164.199 288.635 194.489C276.834 223.086 253.286 243.187 229.736 263.247C204.044 285.131 179.885 315.029 146.147 315.862C112.245 316.699 84.6281 290.231 59.5045 267.45C36.7538 246.821 19.5412 221.621 10.0139 192.424C0.476329 163.196 -3.60043 131.856 5.69488 102.55C15.0311 73.1149 36.213 49.4034 61.1525 31.1955C86.1383 12.9539 115.214 -0.382367 146.147 0.0083672Z" fill="black"/>
</svg>
